<svg width="512" height="512" viewBox="0 0 512 512" fill="none" xmlns="http://www.w3.org/2000/svg">
  <rect width="512" height="512" rx="128" fill="#8B5CF6"/>
  <path d="M341.269 170.731C323.521 152.983 300.554 141.403 275.777 137.99C250.999 134.578 225.717 139.558 204.346 152.116C182.976 164.674 167.062 184.069 159.293 207.141C151.525 230.212 152.379 255.271 161.698 277.723C171.018 300.175 188.221 318.561 210.432 329.8C232.642 341.039 258.208 344.394 282.571 339.273C306.934 334.151 328.75 320.883 344.349 301.764C359.947 282.646 368.369 258.931 368.369 234.5" stroke="white" stroke-width="30" stroke-linecap="round"/>
  <path d="M262.369 180.5L344.369 180.5L344.369 262.5" stroke="white" stroke-width="30" stroke-linecap="round" stroke-linejoin="round"/>
</svg>